:SAMPLES-PER-SECOND 30
:FRAME-RANGE 1-2091
:FULLY-SPECIFIED
:DEGREES
981
root  85.9466 38.651 44.4517 178.492 -27.0996 -174.26
RightUpLeg  -9.25382 0.986869 11.7535
RightLeg  17.8451 3.11631 2.2033
RightFoot  -10.4596 -0.027395 -5.60787
RightToes  5.38607e-012 1.2921e-014 -6.02303e-014
Spine  -4.04031 -2.21711 5.19927
Spine1  7.45431 -1.26611 -1.95117
HEad  11.2273 21.3551 -0.538086
LeftShoulder1  1.64717 -3.61312 -17.4142
LeftArm  13.2803 -35.6642 -66.0559
LeftForeArm  12.0466 -15.8087 -8.14523
LeftHand  -0.693132 0.289042 15.8143
RightShoulder  1.7583 2.23882 25.6694
RightArm  -29.5977 3.22066 51.7732
RightForeArm  72.9451 -4.70006 0.614277
RightHand  1.5123 -12.3657 -24.9069
LeftUpLeg  -19.9716 -3.28472 7.1842
LeftLeg  59.9488 2.3142 4.88941
LeftFoot  -2.01417 0.632429 -7.59826
LeftToes  -7.20997e-011 3.75522e-011 -2.80735e-011
982
root  85.1881 38.6919 43.2586 178.728 -24.8226 -175.402
RightUpLeg  -6.44252 0.254815 10.907
RightLeg  18.0596 5.17339 2.39147
RightFoot  -12.1476 -0.131777 -7.07319
RightToes  5.38607e-012 1.2921e-014 -6.02303e-014
Spine  -4.17247 -1.66647 5.13962
Spine1  7.41463 -0.63568 -2.76628
HEad  11.5553 22.7749 -1.23352
LeftShoulder1  1.55517 -3.33346 -16.9972
LeftArm  9.55958 -37.7976 -65.408
LeftForeArm  12.984 -15.1689 -8.16756
LeftHand  -0.699021 0.178483 15.6192
RightShoulder  1.84138 2.54678 25.4178
RightArm  -26.9965 5.86975 53.8148
RightForeArm  71.4607 -5.00291 2.05329
RightHand  1.3604 -11.6217 -25.0973
LeftUpLeg  -22.479 -4.90393 6.41885
LeftLeg  54.9649 4.94374 8.02345
LeftFoot  -4.6665 0.28853 -4.46683
LeftToes  -7.20997e-011 3.75522e-011 -2.80735e-011
983
root  84.4486 38.742 42.0278 179.196 -22.5686 -176.599
RightUpLeg  -3.8303 -0.0208512 9.67921
RightLeg  18.1593 7.40122 2.58049
RightFoot  -13.8248 -0.263749 -7.85115
RightToes  5.38607e-012 1.2921e-014 -6.02303e-014
Spine  -4.85113 -1.02546 4.80685
Spine1  7.74415 0.0389916 -3.4777
HEad  12.0423 24.2188 -1.66049
LeftShoulder1  1.46384 -3.0598 -16.5308
LeftArm  4.25865 -39.3398 -64.2947
LeftForeArm  14.5828 -13.7688 -8.37647
LeftHand  -0.71463 0.017266 15.4999
RightShoulder  1.97189 3.03863 25.0304
RightArm  -24.4249 8.48897 55.6511
RightForeArm  70.0703 -5.27036 3.3231
RightHand  1.22726 -11.0733 -24.8688
LeftUpLeg  -24.1916 -6.6418 6.05892
LeftLeg  47.4351 7.10876 8.62775
LeftFoot  -5.65657 0.156743 -2.47265
LeftToes  -7.20997e-011 3.75522e-011 -2.80735e-011
984
root  83.7285 38.7346 40.7571 179.556 -21.0088 -177.628
RightUpLeg  -1.21841 -0.26848 8.38038
RightLeg  18.1469 8.83403 2.76244
RightFoot  -15.45 -0.410752 -8.52686
RightToes  5.38607e-012 1.2921e-014 -6.02303e-014
Spine  -5.36667 -0.616563 4.25559
Spine1  7.83646 0.441997 -4.01577
HEad  12.821 25.4495 -2.06993
LeftShoulder1  1.39821 -2.85211 -16.2137
LeftArm  -0.855812 -40.1517 -62.5528
LeftForeArm  16.1984 -11.8937 -8.60237
LeftHand  -0.70458 -0.126762 14.8981
RightShoulder  2.06379 3.38922 24.7711
RightArm  -22.0632 10.9724 57.3132
RightForeArm  69.0223 -5.48158 4.35018
RightHand  1.19922 -10.9577 -24.8146
LeftUpLeg  -25.1026 -8.67183 5.93672
LeftLeg  37.8566 8.88847 7.70112
LeftFoot  -4.03748 0.162554 -2.16672
LeftToes  -7.20997e-011 3.75522e-011 -2.80735e-011
985
root  83.0257 38.704 39.4724 179.98 -19.9682 -178.532
RightUpLeg  1.50259 -0.102386 7.20586
RightLeg  17.5046 9.25893 2.60153
RightFoot  -16.8347 -0.55644 -9.20765
RightToes  5.38607e-012 1.2921e-014 -6.02303e-014
Spine  -5.84299 -0.309143 3.64214
Spine1  7.86525 0.754367 -4.5603
HEad  13.3915 26.5043 -2.51315
LeftShoulder1  1.38992 -2.80369 -16.2617
LeftArm  -5.17039 -40.4195 -60.3696
LeftForeArm  16.815 -9.61762 -8.75613
LeftHand  -0.711079 -0.393705 14.363
RightShoulder  2.15631 3.80935 24.2325
RightArm  -20.1779 13.1542 58.8343
RightForeArm  68.6102 -5.61231 5.04671
RightHand  1.17298 -10.8184 -24.8949
LeftUpLeg  -25.4823 -9.80119 5.89597
LeftLeg  27.1255 9.58581 5.62516
LeftFoot  -1.60874 0.147869 -1.62333
LeftToes  -7.20997e-011 3.75522e-011 -2.80735e-011
986
root  82.3195 38.623 38.1704 -179.452 -19.4662 -179.217
RightUpLeg  4.03992 0.152559 6.2456
RightLeg  16.686 9.07295 2.3055
RightFoot  -18.2065 -0.692726 -9.47506
RightToes  5.38607e-012 1.2921e-014 -6.02303e-014
Spine  -6.46229 -0.13425 3.13007
Spine1  8.0148 0.953311 -5.02207
HEad  13.5833 27.4043 -3.09729
LeftShoulder1  1.39461 -2.79894 -16.3648
LeftArm  -8.04659 -39.9808 -58.0514
LeftForeArm  16.5447 -7.51673 -8.72528
LeftHand  -0.696272 -0.508029 13.8046
RightShoulder  2.1826 4.0224 23.6846
RightArm  -18.9684 15.0934 60.2221
RightForeArm  68.5698 -5.13546 5.43869
RightHand  1.14481 -10.7304 -24.7163
LeftUpLeg  -25.7627 -9.72915 5.36002
LeftLeg  16.6691 11.2992 4.15259
LeftFoot  1.65067 0.159537 -1.48922
LeftToes  -7.20997e-011 3.75522e-011 -2.80735e-011
987
root  81.5827 38.5077 36.8326 -178.892 -19.4016 -179.531
RightUpLeg  6.51751 0.347707 5.56431
RightLeg  15.7915 9.00678 2.13932
RightFoot  -19.2799 -0.767661 -9.1642
RightToes  5.38607e-012 1.2921e-014 -6.02303e-014
Spine  -7.11199 -0.0952901 3.03582
Spine1  8.28407 1.07266 -5.57512
HEad  13.4717 28.1674 -3.84554
LeftShoulder1  1.42482 -2.82395 -16.8001
LeftArm  -9.39452 -39.1146 -55.4693
LeftForeArm  16.2897 -5.23204 -8.6341
LeftHand  -0.688873 -0.577586 13.5064
RightShoulder  2.19927 4.22695 23.0655
RightArm  -18.0458 16.3858 61.3162
RightForeArm  68.5483 -3.85375 5.88117
RightHand  1.16044 -10.8085 -24.691
LeftUpLeg  -25.3938 -2.34011 1.15629
LeftLeg  6.82648 8.09249 3.44026
LeftFoot  0.263744 0.268662 -2.66004
LeftToes  -7.20997e-011 3.75522e-011 -2.80735e-011
988
root  80.7862 38.3679 35.443 -178.593 -19.1423 -179.685
RightUpLeg  8.87006 0.981026 4.96264
RightLeg  15.8016 9.04257 2.25166
RightFoot  -20.0142 -0.76384 -8.27312
RightToes  5.38607e-012 1.2921e-014 -6.02303e-014
Spine  -7.27769 0.113966 3.37914
Spine1  8.3688 1.45937 -6.38946
HEad  12.7531 28.7363 -4.66225
LeftShoulder1  1.44525 -2.78926 -17.3082
LeftArm  -10.4044 -37.8706 -53.2975
LeftForeArm  16.2255 -2.71625 -8.39096
LeftHand  -0.683162 -0.637258 13.2683
RightShoulder  2.18788 4.24696 22.8232
RightArm  -16.9581 17.3648 61.5547
RightForeArm  67.8936 -3.05901 6.45153
RightHand  1.11653 -10.6306 -24.5812
LeftUpLeg  -24.5383 -1.3099 -0.105557
LeftLeg  -1.21604 12.9175 1.79502
LeftFoot  -2.97786 0.341776 -4.42945
LeftToes  -7.20997e-011 3.75522e-011 -2.80735e-011
